<?xml version="1.0" encoding="UTF-8"?>
<svg width="26px" height="26px" viewBox="0 0 26 26" version="1.1" xmlns="http://www.w3.org/2000/svg" xmlns:xlink="http://www.w3.org/1999/xlink">
    <!-- Generator: Sketch 54.1 (76490) - https://sketchapp.com -->
    <title>button-visible</title>
    <desc>Created with Sketch.</desc>
    <g id="分享" stroke="none" stroke-width="1" fill="none" fill-rule="evenodd">
        <g id="移动端分享-主页" transform="translate(-324.000000, -616.000000)" fill="#595959" fill-rule="nonzero">
            <g id="最大化复制" transform="translate(315.000000, 607.000000)">
                <g id="按钮显隐" transform="translate(9.000000, 9.000000)">
                    <path d="M13,21 C7.34579438,21 2.56542055,13.85 2.35981308,13.55 L2,13 L2.35981308,12.45 C2.56542055,12.15 7.34579438,5 13,5 C18.6542056,5 23.4345795,12.15 23.6401869,12.45 L24,13 L23.6401869,13.55 C23.4345795,13.85 18.6542056,21 13,21 Z M5,13 C6.10843374,14.2916667 9.48192772,18 13,18 C16.5180723,18 19.8915663,14.2916667 21,13 C19.8915663,11.7083333 16.5180723,8 13,8 C9.48192772,8 6.10843372,11.7083333 5,13 Z M10,13 C9.99999997,11.9282032 10.5717967,10.9378222 11.5,10.4019238 C12.4282032,9.86602537 13.5717968,9.86602537 14.5,10.4019238 C15.4282033,10.9378222 16,11.9282032 16,13 C16,14.6568542 14.6568542,16 13,16 C11.3431458,16 10,14.6568542 10,13 Z" id="形状结合"></path>
                </g>
            </g>
        </g>
    </g>
</svg>