<?xml version="1.0" encoding="UTF-8"?>
<svg width="14px" height="14px" viewBox="0 0 14 14" version="1.1" xmlns="http://www.w3.org/2000/svg" xmlns:xlink="http://www.w3.org/1999/xlink">
    <!-- Generator: Sketch 54.1 (76490) - https://sketchapp.com -->
    <title>share-info</title>
    <desc>Created with Sketch.</desc>
    <g id="分享" stroke="none" stroke-width="1" fill="none" fill-rule="evenodd">
        <g id="pc端分享-a" transform="translate(-49.000000, -49.000000)" fill="#FFFFFF">
            <g id="Group" transform="translate(32.000000, 32.000000)">
                <g id="编组" transform="translate(17.000000, 17.000000)">
                    <path d="M9.30000001,10.2 C8.99999999,10.2 7.9,11.9 7.19999999,11.9 C7,11.9 7,11.8 7,11.6 C7,11.3 7.19999999,10.8 7.40000001,10.5 L8.90000001,6.59999999 C9.60000002,4.69999998 8.70000002,4.19999999 7.80000001,4.19999999 C6.59999999,4.19999999 5.5,4.79999999 4.70000001,5.5 C4.40000001,5.8 3.80000001,6.80000001 3.80000001,7.10000001 C3.80000001,7.19999999 3.90000002,7.40000001 4.10000001,7.40000001 C4.50000002,7.40000001 5.2,5.5 5.99999999,5.5 C6.19999998,5.5 6.4,5.69999999 6.20000001,5.99999999 L4.70000001,9.50000001 C4.6,9.80000001 3.80000001,11 3.80000001,11.9 C3.80000001,12.7 4.3,13.5 5.09999999,13.5 C7.19999999,13.5 9.59999999,11 9.59999999,10.5 C9.49999998,10.3 9.4,10.2 9.30000001,10.2 L9.30000001,10.2 Z" id="Path"></path>
                    <path d="M8.90000001,0.500000008 C8.00000001,0.500000008 7.20000002,1.20000002 7.19999999,2.09999999 C7.19999999,2.89999998 7.79999999,3.49999998 8.60000001,3.50000001 C9.50000001,3.50000001 10.3,2.8 10.3,1.9 C10.3,1 9.69999999,0.500000008 8.90000001,0.500000008 Z" id="Path"></path>
                </g>
            </g>
        </g>
    </g>
</svg>