<?xml version="1.0" encoding="UTF-8"?>
<svg width="14px" height="14px" viewBox="0 0 14 14" version="1.1" xmlns="http://www.w3.org/2000/svg" xmlns:xlink="http://www.w3.org/1999/xlink">
    <!-- Generator: Sketch 54.1 (76490) - https://sketchapp.com -->
    <title>share-editor</title>
    <desc>Created with Sketch.</desc>
    <g id="分享" stroke="none" stroke-width="1" fill="none" fill-rule="evenodd">
        <g id="pc端分享-a" transform="translate(-113.000000, -49.000000)">
            <g id="Group-2" transform="translate(96.000000, 32.000000)">
                <g id="Group-4" transform="translate(12.000000, 12.000000)">
                    <g id="user-defined" transform="translate(5.000000, 5.000000)">
                        <rect id="Rectangle" fill="#000000" fill-rule="nonzero" opacity="0" x="0" y="0" width="14" height="14"></rect>
                        <path d="M11.864,2.45 C11.9369239,2.62977789 11.9742806,2.82199507 11.974,3.016 C11.974,3.123 11.954,3.229 11.913,3.33599999 C11.867193,3.45009356 11.8003684,3.55457067 11.716,3.64399999 C11.618,3.74199999 11.529,3.828 11.451,3.90200001 C11.373,3.976 11.306,4.04200001 11.249,4.09899999 C11.1895558,4.15867831 11.1278438,4.21605385 11.064,4.271 L8.763,1.97099999 L9.113,1.644 C9.249,1.517 9.36199999,1.41699999 9.452,1.342 C9.65528234,1.17793277 9.91093379,1.09271562 10.172,1.10200001 C10.291,1.107 10.406,1.12500001 10.516,1.15800001 C10.626,1.191 10.723,1.22800001 10.806,1.268 C10.978,1.359 11.168,1.517 11.378,1.742 C11.587,1.968 11.749,2.204 11.864,2.45 L11.864,2.45 Z M2.27800001,8.454 C2.32800001,8.405 2.44200001,8.288 2.623,8.104 C2.80299999,7.91899999 3.029,7.691 3.30000001,7.421 L4.198,6.523 L5.195,5.52600001 L7.84,2.88099999 L10.141,5.194 L7.496,7.839 L6.511,8.836 C6.183,9.156 5.888,9.449 5.62499999,9.716 C5.36299999,9.982 5.145,10.202 4.97300001,10.374 C4.7901183,10.5651283 4.59287553,10.7419782 4.383,10.903 C4.28075935,10.9824579 4.16886959,11.0486509 4.04999999,11.1 C3.88564654,11.1781541 3.71742987,11.2479106 3.54599999,11.309 C3.324,11.391 3.093,11.471 2.851,11.549 C2.60900001,11.627 2.379,11.695 2.161,11.752 C1.944,11.809 1.78199999,11.846 1.67600001,11.862 C1.45400001,11.887 1.30600001,11.854 1.233,11.764 C1.15900001,11.674 1.13800001,11.522 1.171,11.309 C1.18800001,11.194 1.227,11.028 1.288,10.81 C1.352,10.584 1.41799999,10.359 1.485,10.134 C1.555,9.89999999 1.622,9.68399999 1.688,9.48800001 C1.75400001,9.291 1.807,9.156 1.848,9.08200001 C1.897,8.967 1.952,8.862 2.014,8.76799999 C2.07599999,8.67399999 2.164,8.56899999 2.27800001,8.454 L2.27800001,8.454 Z M6.38099999,10.775 L7.481,10.775 L7.481,11.87 L6.38099999,11.87 L6.38099999,10.775 Z M8.617,10.775 L9.717,10.775 L9.717,11.87 L8.617,11.87 L8.617,10.775 Z M10.862,10.775 L11.962,10.775 L11.962,11.87 L10.862,11.87 L10.862,10.775 Z" id="Shape" fill="#FFFFFF"></path>
                    </g>
                </g>
            </g>
        </g>
    </g>
</svg>