<?xml version="1.0" encoding="UTF-8"?>
<svg width="14px" height="14px" viewBox="0 0 14 14" version="1.1" xmlns="http://www.w3.org/2000/svg" xmlns:xlink="http://www.w3.org/1999/xlink">
    <!-- Generator: Sketch 54.1 (76490) - https://sketchapp.com -->
    <title>uploading</title>
    <desc>Created with Sketch.</desc>
    <g id="模态弹窗" stroke="none" stroke-width="1" fill="none" fill-rule="evenodd">
        <g id="上传文件1" transform="translate(-1180.000000, -352.000000)" fill-rule="nonzero">
            <g id="上传文件复制-2" transform="translate(1164.000000, 345.000000)">
                <g id="上传文件" transform="translate(16.000000, 7.000000)">
                    <rect id="矩形" fill="#000000" opacity="0" x="0" y="0" width="14" height="14"></rect>
                    <path d="M10.71875,10.675 C10.5430749,10.673383 10.3752381,10.6020418 10.2521657,10.476672 C10.1290934,10.3513023 10.060868,10.182175 10.0625,10.0065 C10.0625,9.638125 10.3565,9.338875 10.71875,9.338875 C11.806375,9.338875 12.6875,8.441125 12.6875,7.33425 C12.6885421,6.7037514 12.3941672,6.10917254 11.892125,5.72775 L11.883375,5.72075 C11.8408188,5.68900575 11.7970352,5.65894103 11.752125,5.630625 L11.732,5.6175 C11.6897437,5.59170291 11.6465475,5.567478 11.6025,5.544875 L11.56575,5.527375 C11.5255378,5.50737842 11.4846827,5.48870178 11.44325,5.471375 L11.388125,5.45125 C11.35061,5.43699227 11.3126763,5.42386138 11.274375,5.411875 C11.249,5.404 11.223625,5.39875 11.197375,5.39175 C11.164125,5.383 11.130875,5.37425 11.097625,5.36725 C11.062625,5.36025 11.025875,5.355875 10.989125,5.350625 C10.962875,5.347125 10.9375,5.341875 10.91125,5.33925 C10.8472781,5.33291189 10.783035,5.32969973 10.71875,5.329625 C10.698625,5.329625 10.6785,5.33225 10.6575,5.33225 C10.6379079,5.21916204 10.6130896,5.10704197 10.583125,4.99625 C10.576125,4.969125 10.565625,4.94375 10.55775,4.916625 C10.534371,4.83319764 10.5081052,4.75060632 10.479,4.669 C10.47025,4.6445 10.458,4.620875 10.44925,4.596375 C10.4172158,4.5141729 10.3824887,4.43304578 10.345125,4.353125 C10.336375,4.333875 10.325875,4.3155 10.31625,4.297125 C10.2754356,4.21391933 10.2316576,4.1322004 10.185,4.052125 C9.536625,2.949625 8.355375,2.211125 7,2.211125 C5.644625,2.211125 4.46425,2.9505 3.815,4.052125 C3.76775,4.13175 3.724875,4.214 3.68375,4.297125 C3.675,4.3155 3.663625,4.333875 3.654875,4.353125 C3.61725,4.431875 3.583125,4.514125 3.55075,4.596375 C3.542,4.620875 3.530625,4.6445 3.521875,4.669 C3.49247531,4.7505952 3.46591764,4.83318663 3.44225,4.916625 L3.416875,4.995375 C3.38687423,5.10645292 3.36205575,5.21886603 3.3425,5.33225 C3.3215,5.33225 3.301375,5.329625 3.28125,5.329625 C3.215625,5.329625 3.15175,5.333125 3.08875,5.33925 C3.0625,5.341875 3.03625,5.347125 3.01,5.350625 C2.975,5.355875 2.93825,5.36025 2.902375,5.368125 C2.86825,5.37425 2.835875,5.383 2.802625,5.39175 C2.776375,5.39875 2.750125,5.404 2.72475,5.411875 C2.6864497,5.42386436 2.64851611,5.43699521 2.611,5.45125 L2.55675,5.471375 C2.51475,5.488875 2.473625,5.506375 2.43425,5.5265 L2.3975,5.544 C2.35375,5.56675 2.31,5.59125 2.268875,5.6175 L2.247875,5.630625 C2.2029903,5.6589798 2.1592082,5.68904351 2.116625,5.72075 L2.107875,5.72775 C1.60594059,6.10926161 1.31159413,6.70378316 1.3125,7.33425 C1.3125,8.441125 2.193625,9.338 3.28125,9.338 C3.6435,9.338 3.9375,9.638125 3.9375,10.0065 C3.93913198,10.182175 3.87090662,10.3513023 3.74783425,10.476672 C3.62476189,10.6020418 3.45692514,10.673383 3.28125,10.675 C1.469125,10.675 0,9.17875 0,7.33425 C0,5.82925 0.97825,4.557 2.32225,4.13875 C3.052,2.23125 4.86675,0.875 7,0.875 C9.13325,0.875 10.948,2.23125 11.678625,4.13875 C13.02175,4.557 14,5.82925 14,7.33425 C14,9.17875 12.530875,10.675 10.71875,10.675 Z M4.543875,9.114 L4.543875,9.113125 C4.545625,9.113125 4.545625,9.11225 4.545625,9.111375 L6.512625,6.88625 L6.514375,6.888 C6.63673574,6.74749954 6.81368858,6.66651572 7,6.66575 C7.193375,6.66575 7.36575,6.75325 7.4865,6.888875 L7.487375,6.887125 L9.454375,9.111375 L9.454375,9.11225 L9.456125,9.114 C9.548,9.218125 9.608375,9.35025 9.622375,9.49725 L9.622375,9.499 C9.6416123,9.68465012 9.58163146,9.86980062 9.45718784,10.0089043 C9.33274421,10.1480079 9.15538835,10.2281535 8.96875,10.229625 L8.94775,10.229625 L8.934625,10.22875 L8.920625,10.227875 L8.89875,10.22525 L8.89175,10.22525 L8.862875,10.220875 C8.71501823,10.1960448 8.58026361,10.1209407 8.481375,10.00825 L7.65625,9.0755 L7.65625,12.4565 C7.65788198,12.632175 7.58965662,12.8013023 7.46658425,12.926672 C7.34351189,13.0520418 7.17567514,13.123383 7,13.125 C6.82432486,13.123383 6.65648811,13.0520418 6.53341575,12.926672 C6.41034338,12.8013023 6.34211802,12.632175 6.34375,12.4565 L6.34375,9.0755 L5.518625,10.00825 C5.41996313,10.1206122 5.28549647,10.195419 5.138,10.22 C5.128375,10.222625 5.11875,10.2235 5.109125,10.224375 C5.10621783,10.2247549 5.10329983,10.2250467 5.100375,10.22525 L5.079375,10.227875 L5.06625,10.227875 L5.054,10.22875 L5.03125,10.22875 C4.78896873,10.2282343 4.56679271,10.0939188 4.45375,9.879625 C4.32039363,9.63074432 4.35637106,9.32511084 4.543875,9.114 L4.543875,9.114 Z" id="形状" fill="#FFFFFF"></path>
                </g>
            </g>
        </g>
    </g>
</svg>