<?xml version="1.0" encoding="UTF-8"?>
<svg width="14px" height="14px" viewBox="0 0 14 14" version="1.1" xmlns="http://www.w3.org/2000/svg" xmlns:xlink="http://www.w3.org/1999/xlink">
    <!-- Generator: Sketch 54.1 (76490) - https://sketchapp.com -->
    <title>upload-myfiles</title>
    <desc>Created with Sketch.</desc>
    <g id="模态弹窗" stroke="none" stroke-width="1" fill="none" fill-rule="evenodd">
        <g id="上传文件1" transform="translate(-1180.000000, -394.000000)" fill="#0083CB" fill-rule="nonzero">
            <g id="我的数据复制-2" transform="translate(1164.000000, 387.000000)">
                <g id="我的数据" transform="translate(16.000000, 7.000000)">
                    <path d="M12.3,12.25 C12.3,12.6089851 12.0089851,12.9 11.65,12.9 L2.65,12.9 C2.29101491,12.9 2,12.6089851 2,12.25 L2,1.65 C2,1.29101491 2.29101491,1 2.65,1 L11.65,1 C12.0089851,1 12.3,1.29101491 12.3,1.65 L12.3,12.25 Z M11,2.3 L3.3,2.3 L3.3,11.6 L11,11.6 L11,2.3 Z M4.85,4.15 L9.45,4.15 C9.72614237,4.15 9.95,4.37385763 9.95,4.65 C9.95,4.92614237 9.72614237,5.15 9.45,5.15 L4.85,5.15 C4.57385763,5.15 4.35,4.92614237 4.35,4.65 C4.35,4.37385763 4.57385763,4.15 4.85,4.15 Z M4.85,6.55 L9.45,6.55 C9.72614237,6.55 9.95,6.77385763 9.95,7.05 C9.95,7.32614237 9.72614237,7.55 9.45,7.55 L4.85,7.55 C4.57385763,7.55 4.35,7.32614237 4.35,7.05 C4.35,6.77385763 4.57385763,6.55 4.85,6.55 Z M4.85,8.85 L9.45,8.85 C9.72614237,8.85 9.95,9.07385763 9.95,9.35 C9.95,9.62614237 9.72614237,9.85 9.45,9.85 L4.85,9.85 C4.57385763,9.85 4.35,9.62614237 4.35,9.35 C4.35,9.07385763 4.57385763,8.85 4.85,8.85 Z" id="up"></path>
                </g>
            </g>
        </g>
    </g>
</svg>