<?xml version="1.0" encoding="UTF-8"?>
<svg width="14px" height="14px" viewBox="0 0 14 14" version="1.1" xmlns="http://www.w3.org/2000/svg" xmlns:xlink="http://www.w3.org/1999/xlink">
    <!-- Generator: Sketch 54.1 (76490) - https://sketchapp.com -->
    <title>upload-sharefiles</title>
    <desc>Created with Sketch.</desc>
    <g id="模态弹窗" stroke="none" stroke-width="1" fill="none" fill-rule="evenodd">
        <g id="上传文件1" transform="translate(-1180.000000, -436.000000)" fill="#0083CB">
            <g id="与我共享复制-3" transform="translate(1164.000000, 429.000000)">
                <g id="与我共享复制" transform="translate(16.000000, 7.000000)">
                    <rect id="矩形" fill-rule="nonzero" opacity="0" x="0" y="0" width="14" height="14"></rect>
                    <path d="M11.375,9.625 C12.3416016,9.625 13.125,8.84160156 13.125,7.875 C13.125,6.90839844 12.3416016,6.125 11.375,6.125 C10.4083984,6.125 9.625,6.90839844 9.625,7.875 C9.625,8.05957031 9.65371094,8.2359375 9.70566406,8.40273438 L8.69394531,9.03710938 C8.46972656,8.85800781 8.18398437,8.75 7.875,8.75 C7.15039062,8.75 6.5625,9.33789062 6.5625,10.0625 C6.5625,10.7871094 7.15039062,11.375 7.875,11.375 C8.15253906,11.375 8.4109375,11.2888672 8.62285156,11.1412109 L10.0529297,12.1652344 C10.0501953,12.1939453 10.0488281,12.2212891 10.0488281,12.25 C10.0488281,12.7326172 10.4412109,13.125 10.9238281,13.125 C11.4064453,13.125 11.7988281,12.7326172 11.7988281,12.25 C11.7988281,11.7673828 11.4064453,11.375 10.9238281,11.375 C10.7953125,11.375 10.6722656,11.4037109 10.5628906,11.4529297 L9.13554688,10.4316406 C9.16972656,10.3140625 9.1875,10.1910156 9.1875,10.0625 C9.1875,9.96542969 9.1765625,9.87109375 9.15742187,9.77949219 L10.1705078,9.14375 C10.4835937,9.44179687 10.9087891,9.625 11.375,9.625 Z M11.375,7 C11.8576172,7 12.25,7.39238281 12.25,7.875 C12.25,8.35761719 11.8576172,8.75 11.375,8.75 C10.8923828,8.75 10.5,8.35761719 10.5,7.875 C10.5,7.39238281 10.8923828,7 11.375,7 Z M7.875,10.5 C7.634375,10.5 7.4375,10.303125 7.4375,10.0625 C7.4375,9.821875 7.634375,9.625 7.875,9.625 C8.115625,9.625 8.3125,9.821875 8.3125,10.0625 C8.3125,10.303125 8.115625,10.5 7.875,10.5 Z" id="形状"></path>
                    <path d="M2.35,2.35 L9.45,2.35 L9.45,4.33636364 C9.45,4.69534872 9.74101491,4.98636364 10.1,4.98636364 C10.4589851,4.98636364 10.75,4.69534872 10.75,4.33636364 L10.75,1.7 C10.75,1.34101491 10.4589851,1.05 10.1,1.05 L1.7,1.05 C1.34101491,1.05 1.05,1.34101491 1.05,1.7 L1.05,11.7 C1.05,12.0589851 1.34101491,12.35 1.7,12.35 L5.7,12.35 C6.05898509,12.35 6.35,12.0589851 6.35,11.7 C6.35,11.3410149 6.05898509,11.05 5.7,11.05 L2.35,11.05 L2.35,2.35 Z" id="路径-2" fill-rule="nonzero"></path>
                    <rect id="矩形" x="3.3" y="4" width="5" height="1" rx="0.5"></rect>
                    <rect id="矩形复制-4" x="3.3" y="6" width="5" height="1" rx="0.5"></rect>
                    <path d="M3.8,8 L5.8,8 C6.07614237,8 6.3,8.22385763 6.3,8.5 L6.3,8.5 C6.3,8.77614237 6.07614237,9 5.8,9 L3.8,9 C3.52385763,9 3.3,8.77614237 3.3,8.5 L3.3,8.5 C3.3,8.22385763 3.52385763,8 3.8,8 Z" id="矩形复制-5"></path>
                </g>
            </g>
        </g>
    </g>
</svg>