<?xml version="1.0" encoding="UTF-8"?>
<svg width="14px" height="12px" viewBox="0 0 14 12" version="1.1" xmlns="http://www.w3.org/2000/svg" xmlns:xlink="http://www.w3.org/1999/xlink">
    <!-- Generator: Sketch 54.1 (76490) - https://sketchapp.com -->
    <title>刷新</title>
    <desc>Created with Sketch.</desc>
    <g id="模态弹窗" stroke="none" stroke-width="1" fill="none" fill-rule="evenodd">
        <g id="与我共享" transform="translate(-931.000000, -228.000000)" fill="#0083CB">
            <g id="我的数据复制" transform="translate(835.000000, 209.000000)">
                <g id="刷新数据" transform="translate(96.000000, 15.000000)">
                    <g id="刷新" transform="translate(0.000000, 4.000000)">
                        <path d="M9.17988065,9.11114899 C8.51918159,9.57483805 7.74424552,9.80583021 6.95396419,9.79645414 C6.84910486,9.7947494 6.74595055,9.78707808 6.64279625,9.77940675 C6.60102302,9.7751449 6.55924979,9.76832595 6.51747656,9.76235936 C6.43563512,9.75213092 6.35635124,9.74190249 6.27706735,9.72570747 C6.228474,9.71718377 6.17988065,9.70354586 6.13299233,9.69246505 C6.05541347,9.67541766 5.97868713,9.65837027 5.9028133,9.63620866 C5.86700767,9.62257075 5.83290708,9.61148994 5.79710145,9.59699966 C5.70929241,9.56972383 5.62233589,9.53903853 5.53878943,9.50409137 C5.5200341,9.49556768 5.50127877,9.48874872 5.48252344,9.4810774 C5.38448423,9.43590181 5.28729753,9.38987385 5.19266837,9.34043641 C5.18925831,9.3378793 5.18414322,9.33617457 5.18073316,9.33361746 C4.86189258,9.15802932 4.571185,8.94237982 4.31543052,8.6849642 C4.31116795,8.68070235 4.30775789,8.67558814 4.3026428,8.67132629 C4.22335891,8.59205592 4.14748508,8.51022844 4.07587383,8.421582 C4.06138107,8.40368224 4.04688832,8.38578248 4.03154305,8.36447324 C3.51236147,7.71496761 3.19948849,6.89243096 3.19948849,5.99829526 L4.20034101,5.99829526 L2.6001705,3.59887487 L1,5.99829526 L1.99914749,5.99829526 C1.99914749,7.04926696 2.32821824,8.02437777 2.88491049,8.83157177 C2.89173061,8.84350494 2.89599318,8.85629049 2.90366581,8.86651892 C2.96078431,8.95005114 3.02557545,9.02591204 3.08695652,9.1026253 C3.11082694,9.13075349 3.1312873,9.15973406 3.15601023,9.19127174 C3.24637681,9.30037504 3.34441603,9.40436413 3.44330776,9.50664848 C3.45353794,9.51687692 3.46206309,9.52540061 3.47058824,9.53477668 C3.8056266,9.8706103 4.18329071,10.1518923 4.59505541,10.3786226 C4.60613811,10.3845892 4.61551577,10.3897034 4.6283035,10.3965223 C4.74680307,10.4604501 4.8687127,10.5192636 4.99147485,10.5729628 C5.0230179,10.5866008 5.05285592,10.6002387 5.08269395,10.6130242 C5.18925831,10.6581998 5.29752771,10.6957041 5.40664962,10.7332083 C5.45865303,10.7511081 5.50895141,10.7681555 5.56180733,10.7852029 C5.657289,10.8124787 5.7544757,10.8371974 5.85336743,10.859359 C5.91901108,10.8747017 5.98209719,10.8917491 6.04944587,10.9036822 C6.07672634,10.9105012 6.10230179,10.9190249 6.12958227,10.921582 C6.22335891,10.9386294 6.31628303,10.9471531 6.40835465,10.9582339 C6.44245524,10.9642005 6.47570332,10.9701671 6.50895141,10.9735765 C6.67604433,10.9897716 6.84228474,11 7.00852515,11 C8.02387042,11 9.01619778,10.6897375 9.86700767,10.0930788 C10.1381074,9.90300034 10.2046036,9.52795772 10.0153453,9.25860893 C9.82438193,8.9849983 9.45098039,8.91936584 9.17988065,9.11114899 L9.17988065,9.11114899 Z M11.998295,5.99829526 C11.998295,4.94988067 11.6734868,3.97562223 11.1193521,3.17269008 C11.1108269,3.15905217 11.1057118,3.14456188 11.0988917,3.13262871 C11.0272805,3.03375384 10.9539642,2.94169792 10.8780904,2.84878964 C10.8695652,2.8385612 10.8610401,2.82662803 10.8533674,2.81469485 C10.3435635,2.20098875 9.70673487,1.72451415 8.98635976,1.41339925 C8.96504689,1.40487555 8.94714408,1.39549949 8.9258312,1.38697579 C8.80988917,1.3392431 8.69224211,1.29832936 8.57203751,1.25741562 C8.53111679,1.2437777 8.48763853,1.22843505 8.44501279,1.21564951 C8.34100597,1.18411183 8.23699915,1.15854074 8.1312873,1.13382203 C8.07246377,1.12103648 8.01278772,1.10569383 7.95396419,1.09376065 C7.92497869,1.08864644 7.89855072,1.08012274 7.86786019,1.07415615 C7.7885763,1.06137061 7.71099744,1.05369928 7.63171355,1.04432322 C7.57630009,1.03835663 7.52344416,1.02983294 7.46803069,1.02386635 C7.33503836,1.0110808 7.20289855,1.00596659 7.07075874,1.00340948 C7.04688832,1.00340948 7.0230179,1 6.99914749,1 C6.99488491,1 6.99062234,1.00085237 6.98635976,1.00170474 C5.97186701,1.00255711 4.98124467,1.30855779 4.13213981,1.90436413 C3.86104007,2.09359018 3.7945439,2.46778043 3.98550725,2.7405387 C4.17391304,3.01073986 4.54987212,3.07722468 4.82182438,2.8862939 C5.47740835,2.42771906 6.24296675,2.19416979 7.02813299,2.20184112 C7.14066496,2.20269349 7.25319693,2.20780771 7.36231884,2.21888851 C7.39641944,2.22144562 7.428815,2.22655984 7.4629156,2.23167405 C7.55328218,2.24275486 7.64279625,2.25468803 7.7314578,2.27344016 C7.76982097,2.28025912 7.80903666,2.29048756 7.8456948,2.29901125 C7.93350384,2.31861575 8.01875533,2.33907262 8.10315431,2.36464371 C8.1312873,2.37231504 8.15686275,2.3816911 8.18243819,2.39191954 C8.28047741,2.42345721 8.37595908,2.45669962 8.46803069,2.49590863 C8.47826087,2.49846573 8.48763853,2.50613706 8.4970162,2.50954654 C9.0571185,2.74991476 9.54731458,3.11984316 9.93094629,3.58353222 C9.93179881,3.58523696 9.93350384,3.58864644 9.9369139,3.59120355 C10.4757033,4.24752813 10.799659,5.08540743 10.8005115,5.99829526 L9.79880648,5.99829526 L11.4015345,8.39856802 L13,5.99829526 L11.998295,5.99829526 Z" id="Shape"></path>
                    </g>
                </g>
            </g>
        </g>
    </g>
</svg>